<svg xmlns="http://www.w3.org/2000/svg" xmlns:xlink="http://www.w3.org/1999/xlink" width="90.869" height="90.921" viewBox="0 0 90.869 90.921">
  <defs>
    <linearGradient id="linear-gradient" x1="0.5" x2="0.5" y2="1" gradientUnits="objectBoundingBox">
      <stop offset="0" stop-color="#f07121"/>
      <stop offset="1" stop-color="#006992"/>
    </linearGradient>
  </defs>
  <g id="smiling" transform="translate(-0.149)">
    <g id="Group_207" data-name="Group 207" transform="translate(0.149 0)">
      <g id="Group_206" data-name="Group 206" transform="translate(0)">
        <path id="Path_7957" data-name="Path 7957" d="M88.882,51.759a1.776,1.776,0,0,0-2.07,1.421A41.884,41.884,0,0,1,45.618,87.37h0A41.909,41.909,0,1,1,45.6,3.552h0A41.745,41.745,0,0,1,58.8,5.669a12.025,12.025,0,0,0-3.558,8.688c0,11.971,16.428,19.926,17.127,20.259a1.777,1.777,0,0,0,.763.172h.054l.072,0a1.777,1.777,0,0,0,.712-.173A45.006,45.006,0,0,0,83.719,28a41.59,41.59,0,0,1,3.084,9.7,1.776,1.776,0,1,0,3.491-.653,45.144,45.144,0,0,0-3.926-11.746c2.64-3.053,4.65-6.756,4.65-10.951,0-6.605-4.913-11.78-11.184-11.78a10.329,10.329,0,0,0-6.706,2.387,10.3,10.3,0,0,0-6.705-2.387,10.939,10.939,0,0,0-3.855.693A45.211,45.211,0,0,0,45.606,0h0A45.457,45.457,0,0,0,13.467,77.6,45.171,45.171,0,0,0,45.614,90.921h0A45.439,45.439,0,0,0,90.3,53.83,1.776,1.776,0,0,0,88.882,51.759ZM71.791,8.606a1.773,1.773,0,0,0,1.356.6,1.793,1.793,0,0,0,1.333-.618l.044-.048A6.864,6.864,0,0,1,79.833,6.13c4.28,0,7.633,3.614,7.633,8.228,0,8.48-11.3,15.075-14.307,16.678-3.023-1.6-14.37-8.182-14.37-16.678,0-4.614,3.353-8.228,7.633-8.228A6.881,6.881,0,0,1,71.791,8.606Z" transform="translate(-0.149 0)" fill="url(#linear-gradient)"/>
        <path id="Path_7958" data-name="Path 7958" d="M493.535,248.334a1.775,1.775,0,1,0-.653,2.156A1.791,1.791,0,0,0,493.535,248.334Z" transform="translate(-403.112 -203.333)" fill="url(#linear-gradient)"/>
        <path id="Path_7959" data-name="Path 7959" d="M304.533,191.33l3.081-3.081,3.081,3.081a1.776,1.776,0,1,0,2.512-2.511l-4.337-4.337a1.776,1.776,0,0,0-2.511,0l-4.337,4.337a1.776,1.776,0,1,0,2.511,2.511Z" transform="translate(-247.988 -151.294)" fill="url(#linear-gradient)"/>
        <path id="Path_7960" data-name="Path 7960" d="M144.393,191.33l3.081-3.081,3.081,3.081a1.776,1.776,0,0,0,2.511-2.512l-4.337-4.337a1.776,1.776,0,0,0-2.511,0l-4.337,4.337a1.776,1.776,0,0,0,2.511,2.512Z" transform="translate(-116.285 -151.293)" fill="url(#linear-gradient)"/>
        <path id="Path_7961" data-name="Path 7961" d="M106.412,262.177V264.3a26.544,26.544,0,0,0,1.143,7.727l.014.044a26.427,26.427,0,0,0,12.541,15.459l0,0a26.573,26.573,0,0,0,25.671,0h0a26.614,26.614,0,0,0,12.543-15.459l.014-.045a26.542,26.542,0,0,0,1.143-7.727v-2.125a1.776,1.776,0,0,0-1.776-1.776H108.188a1.776,1.776,0,0,0-1.776,1.776Zm26.537,25.112a23.046,23.046,0,0,1-9.292-1.957,12.345,12.345,0,0,1,18.019-.6q.293.293.564.6A23.048,23.048,0,0,1,132.949,287.289Zm13.809-4.609q-.649.488-1.333.931a15.895,15.895,0,0,0-24.953,0,23.3,23.3,0,0,1-8.683-10.32h42.319A23.235,23.235,0,0,1,146.759,282.68Zm-36.8-18.727h45.972v.35a23.065,23.065,0,0,1-.646,5.435H110.61a23.067,23.067,0,0,1-.646-5.435Z" transform="translate(-87.542 -214.159)" fill="url(#linear-gradient)"/>
      </g>
    </g>
  </g>
</svg>
