<svg xmlns="http://www.w3.org/2000/svg" xmlns:xlink="http://www.w3.org/1999/xlink" width="74.705" height="101.592" viewBox="0 0 74.705 101.592">
  <defs>
    <linearGradient id="linear-gradient" x1="0.5" x2="0.5" y2="1" gradientUnits="objectBoundingBox">
      <stop offset="0" stop-color="#f07121"/>
      <stop offset="1" stop-color="#006992"/>
    </linearGradient>
  </defs>
  <g id="medal" transform="translate(-67.25)">
    <g id="Group_213" data-name="Group 213" transform="translate(67.25 0)">
      <g id="Group_212" data-name="Group 212" transform="translate(0 0)">
        <path id="Path_7973" data-name="Path 7973" d="M138,27.787a10.222,10.222,0,0,1-3.019-7.277A13.557,13.557,0,0,0,121.445,6.977a10.256,10.256,0,0,1-7.277-3.019,13.537,13.537,0,0,0-19.131,0A10.221,10.221,0,0,1,87.76,6.977,13.557,13.557,0,0,0,74.227,20.51a10.173,10.173,0,0,1-3.019,7.277,13.562,13.562,0,0,0,0,19.151,10.222,10.222,0,0,1,3.019,7.277,13.547,13.547,0,0,0,9.7,12.974L76.066,96.535l11.854-6.6,6.957,11.655,7.257-27.087a13.857,13.857,0,0,0,4.918,0l7.277,27.067,6.957-11.655,11.854,6.6-7.856-29.346a13.547,13.547,0,0,0,9.7-12.974A10.256,10.256,0,0,1,138,46.918,13.537,13.537,0,0,0,138,27.787ZM93.758,93.316,89.12,85.56l-7.9,4.4,5.957-22.23c.22.02.42.02.62.02a10.256,10.256,0,0,1,7.277,3.019c.32.32.64.6.98.88l.3.24c.24.18.48.36.74.54.14.1.3.18.44.28.22.12.42.26.64.38.18.1.38.2.56.28a2.524,2.524,0,0,0,.32.14Zm34.284-3.358-7.9-4.4-4.638,7.756-5.3-19.811a2.6,2.6,0,0,1,.34-.16c.2-.1.38-.18.58-.3.22-.12.42-.24.62-.36.16-.1.3-.18.46-.28.24-.16.46-.34.7-.52a2.182,2.182,0,0,0,.34-.26c.34-.28.66-.56.98-.88a10.221,10.221,0,0,1,7.277-3.019,5.572,5.572,0,0,0,.58,0ZM135.7,44.639a13.441,13.441,0,0,0-3.958,9.576,10.31,10.31,0,0,1-8.2,10.075l-.52.08c-.28.04-.52.08-.78.1s-.54.04-.8.04a13.6,13.6,0,0,0-3.938.58,13.342,13.342,0,0,0-5.617,3.378,10.158,10.158,0,0,1-.86.76c-.1.08-.2.14-.3.22a7.235,7.235,0,0,1-.64.44c-.1.06-.22.14-.34.2-.24.14-.48.26-.72.38a1.827,1.827,0,0,0-.28.14,8.736,8.736,0,0,1-.92.36c-.06.02-.14.06-.2.08l-.12.04a10.509,10.509,0,0,1-5.777,0l-.16-.04c-.06-.02-.1-.04-.16-.06-.32-.1-.64-.24-.96-.36-.08-.04-.18-.08-.26-.12-.26-.12-.5-.26-.74-.4l-.3-.18a8.089,8.089,0,0,1-.68-.46,2.263,2.263,0,0,1-.26-.2c-.3-.24-.58-.5-.86-.76a13.465,13.465,0,0,0-5.617-3.378,13.6,13.6,0,0,0-3.938-.58c-.28,0-.54-.02-.8-.04-.24-.02-.5-.06-.78-.1l-.52-.08a10.31,10.31,0,0,1-8.2-10.075,13.441,13.441,0,0,0-3.958-9.576,10.28,10.28,0,0,1,0-14.553,13.441,13.441,0,0,0,3.958-9.576A10.285,10.285,0,0,1,87.78,10.275a13.441,13.441,0,0,0,9.575-3.958,10.328,10.328,0,0,1,14.553,0,13.441,13.441,0,0,0,9.576,3.958A10.285,10.285,0,0,1,131.76,20.55a13.441,13.441,0,0,0,3.958,9.576A10.262,10.262,0,0,1,135.7,44.639Z" transform="translate(-67.25 0)" fill="url(#linear-gradient)"/>
        <path id="Path_7974" data-name="Path 7974" d="M156.619,65.1a24.359,24.359,0,1,0,24.369,24.349A24.4,24.4,0,0,0,156.619,65.1Zm0,45.459a21.11,21.11,0,1,1,21.11-21.11A21.141,21.141,0,0,1,156.619,110.559Z" transform="translate(-119.256 -52.086)" fill="url(#linear-gradient)"/>
        <path id="Path_7975" data-name="Path 7975" d="M192.7,103.8l-3.618,11.155H177.35l9.5,6.9-3.618,11.155,9.5-6.9,9.5,6.9-3.638-11.155,9.5-6.9H196.341Zm3.318,20.71-3.318-2.419-3.318,2.419,1.259-3.9-3.318-2.419h4.1l1.259-3.9,1.259,3.9h4.1l-3.318,2.419Z" transform="translate(-155.34 -83.05)" fill="url(#linear-gradient)"/>
      </g>
    </g>
  </g>
</svg>
