<svg xmlns="http://www.w3.org/2000/svg" xmlns:xlink="http://www.w3.org/1999/xlink" width="97.023" height="95.805" viewBox="0 0 97.023 95.805">
  <defs>
    <linearGradient id="linear-gradient" x1="0.5" x2="0.5" y2="1" gradientUnits="objectBoundingBox">
      <stop offset="0" stop-color="#f07121"/>
      <stop offset="1" stop-color="#006992"/>
    </linearGradient>
  </defs>
  <g id="diet_2_" data-name="diet (2)" transform="translate(0 -3.215)">
    <path id="Path_7962" data-name="Path 7962" d="M191.749,35.856a1.588,1.588,0,1,0-1.588-1.588A1.588,1.588,0,0,0,191.749,35.856Z" transform="translate(-154.126 -23.881)" fill="url(#linear-gradient)"/>
    <path id="Path_7963" data-name="Path 7963" d="M142.276,79.738H161.3a1.421,1.421,0,1,0,0-2.843H142.276a1.421,1.421,0,1,0,0,2.843Z" transform="translate(-114.163 -59.718)" fill="url(#linear-gradient)"/>
    <path id="Path_7964" data-name="Path 7964" d="M290.2,367.4v2.723a1.421,1.421,0,0,0,2.843,0V367.4a1.421,1.421,0,1,0-2.843,0Z" transform="translate(-235.211 -294.017)" fill="url(#linear-gradient)"/>
    <path id="Path_7965" data-name="Path 7965" d="M439.787,367.4v2.723a1.421,1.421,0,1,0,2.843,0V367.4a1.421,1.421,0,1,0-2.843,0Z" transform="translate(-356.448 -294.017)" fill="url(#linear-gradient)"/>
    <path id="Path_7966" data-name="Path 7966" d="M353.1,380.4a3.532,3.532,0,0,1-5.33,0,1.421,1.421,0,1,0-2.143,1.868,6.376,6.376,0,0,0,9.616,0A1.421,1.421,0,1,0,353.1,380.4Z" transform="translate(-279.847 -305.318)" fill="url(#linear-gradient)"/>
    <path id="Path_7967" data-name="Path 7967" d="M107.986,185.82l7.975-4.09a1.421,1.421,0,1,0-1.3-2.53l-5.905,3.028v-1.763a1.421,1.421,0,0,0-2.843,0v4.09A1.423,1.423,0,0,0,107.986,185.82Z" transform="translate(-85.845 -142.509)" fill="url(#linear-gradient)"/>
    <path id="Path_7968" data-name="Path 7968" d="M188.682,192.68h12.55a1.421,1.421,0,1,0,0-2.843h-12.55a1.421,1.421,0,1,0,0,2.843Z" transform="translate(-151.775 -151.257)" fill="url(#linear-gradient)"/>
    <path id="Path_7969" data-name="Path 7969" d="M107.986,254.416l7.975-4.09a1.422,1.422,0,1,0-1.3-2.53l-5.905,3.028v-1.763a1.421,1.421,0,0,0-2.843,0v4.09A1.423,1.423,0,0,0,107.986,254.416Z" transform="translate(-85.845 -198.107)" fill="url(#linear-gradient)"/>
    <path id="Path_7970" data-name="Path 7970" d="M188.682,261.277h12.55a1.421,1.421,0,1,0,0-2.843h-12.55a1.421,1.421,0,1,0,0,2.843Z" transform="translate(-151.775 -206.855)" fill="url(#linear-gradient)"/>
    <path id="Path_7971" data-name="Path 7971" d="M107.338,323.169c.614,0,.193.015,8.624-4.246a1.421,1.421,0,1,0-1.3-2.53l-5.905,3.028v-1.763a1.421,1.421,0,1,0-2.843,0v4.09A1.422,1.422,0,0,0,107.338,323.169Z" transform="translate(-85.845 -253.704)" fill="url(#linear-gradient)"/>
    <path id="Path_7972" data-name="Path 7972" d="M12.949,96.839H56.564a14.485,14.485,0,0,0,14.023.7,14.546,14.546,0,0,0,15.362-1.618,30.007,30.007,0,0,0,6.713-7.179,1.421,1.421,0,1,0-2.373-1.565,27.166,27.166,0,0,1-6.081,6.5,11.679,11.679,0,0,1-12.746,1.115,1.818,1.818,0,0,0-1.747,0l-.163.088c-6.224,3.292-11.822-.651-11.8-.644a16.355,16.355,0,0,1-1.583-1.2C38.414,78.245,48.192,50.594,70.035,59.819c.814.344,1.033-.1,3.407-.851,15.757-5.007,24.4,9.91,19.284,23.45a1.421,1.421,0,1,0,2.659,1.005c4.271-11.3-.024-24.009-10.365-27.418a11.733,11.733,0,0,0,.191-9.851,1.421,1.421,0,0,0-.681-.681,11.517,11.517,0,0,0-9.282-.066V26.085A12.964,12.964,0,0,0,62.3,13.135H58.517a6.112,6.112,0,0,0-5.69-3.9H45.24a7.827,7.827,0,0,0-15.231,0H22.42a6.112,6.112,0,0,0-5.69,3.9H12.949A12.964,12.964,0,0,0,0,26.085v57.8a12.964,12.964,0,0,0,12.949,12.95ZM71.525,56.617c-.2.072-.634.235-.937.356a22.345,22.345,0,0,0-11.6-1.661,9.132,9.132,0,0,1-.652-7.471c5.639-2.175,12.464,2.6,13.191,8.776Zm11.316-8.776a9.125,9.125,0,0,1-.656,7.484,20.385,20.385,0,0,0-7.906.454,13.373,13.373,0,0,0-1.907-4.96C75.378,47.557,79.667,46.616,82.842,47.841ZM72.4,26.085V47a14.7,14.7,0,0,0-1.817,1.571,13.907,13.907,0,0,0-4.76-3.2V26.917a4.245,4.245,0,0,0-4.24-4.241H58.84a6.11,6.11,0,0,0,.091-1.045V15.978H62.3A10.118,10.118,0,0,1,72.4,26.085ZM22.42,12.079h8.811a1.421,1.421,0,0,0,1.419-1.338,4.982,4.982,0,0,1,9.947,0,1.421,1.421,0,0,0,1.419,1.337h8.811a3.269,3.269,0,0,1,3.261,3.261c-.022,6.523.2,7-.568,8.127a3.3,3.3,0,0,1-2.693,1.425c-32.321-.006-30.559.037-31.062-.066a3.269,3.269,0,0,1-2.606-3.195c.006-6.849-.02-6.332.032-6.723a3.263,3.263,0,0,1,3.228-2.829ZM2.843,26.085A10.118,10.118,0,0,1,12.949,15.978h3.367v5.654a6.108,6.108,0,0,0,.091,1.045H13.66a4.245,4.245,0,0,0-4.24,4.241V43.992a1.421,1.421,0,1,0,2.843,0V26.917a1.4,1.4,0,0,1,1.4-1.4h4.054a6.079,6.079,0,0,0,4.706,2.216c32.925,0,30.813.085,31.938-.195a6.051,6.051,0,0,0,3.174-2.021h4.054a1.4,1.4,0,0,1,1.4,1.4V44.594a11.1,11.1,0,0,0-5.951.706,1.716,1.716,0,0,0-1.068.853A11.726,11.726,0,0,0,56.151,56a16.875,16.875,0,0,0-9.724,8.582H36.907a1.421,1.421,0,1,0,0,2.843h8.345c-.023.07-.157.495-.223.719h0A24.445,24.445,0,0,0,46.2,84.454H13.66a1.4,1.4,0,0,1-1.4-1.4V49.678a1.421,1.421,0,1,0-2.843,0V83.056A4.245,4.245,0,0,0,13.66,87.3H47.617A28.765,28.765,0,0,0,52.968,94H12.949A10.118,10.118,0,0,1,2.843,83.889Z" fill="url(#linear-gradient)"/>
  </g>
</svg>
